<?xml version="1.0" encoding="utf-8"?>
<!-- Generator: Adobe Illustrator 26.0.3, SVG Export Plug-In . SVG Version: 6.00 Build 0)  -->
<svg version="1.1" id="Layer_1" xmlns="http://www.w3.org/2000/svg" xmlns:xlink="http://www.w3.org/1999/xlink" x="0px" y="0px"
	 viewBox="0 0 200 200" style="enable-background:new 0 0 200 200;" xml:space="preserve">
<path id="Caminho_3070" d="M162.2,92.9c2.1-2,4-4.1,5.7-6.3c2.9-3.9,5.3-8.2,6.9-12.7c1.8-5.1,2.8-10.5,2.7-16
	c0.6-15.9-5.8-31.3-17.5-42.1C148.7,5.3,131.5,0,108.9,0H14.8L26,26.5v173.2h82c11.3,0.2,22.5-1.3,33.4-4.5
	c8.9-2.6,17.2-7,24.3-12.9c6.5-5.5,11.6-12.5,14.8-20.4c3.1-7.8,4.6-16.1,4.6-24.4c0.6-12.6-3.5-24.9-11.5-34.7
	C170.3,99.1,166.4,95.7,162.2,92.9z M127.4,147.7c-5.9,3.8-12.9,5.6-19.9,5.2H78.1V47h30.8c4.7-0.3,9.5,1,13.4,3.7
	c2.6,2.3,4,5.6,3.7,9.1c0.5,3.9-0.9,7.7-3.7,10.4c-3.9,2.6-8.5,3.9-13.1,3.7H86.4v46.4h20.3c7.3-0.5,14.6,1.1,21.1,4.7
	c3.6,2.3,5.7,6.5,5.3,10.8C133.3,140.4,131.2,144.9,127.4,147.7z"/>
</svg>
